<svg width="18" height="20" viewBox="0 0 18 20" fill="none" xmlns="http://www.w3.org/2000/svg">
  <path d="M1 6.5L6 4.5L12 6.5L17 4.5V16.5L12 18.5L6 16.5L1 18.5V6.5Z" stroke="white" stroke-width="2" stroke-linecap="round" stroke-linejoin="round"/>
  <path d="M9 1C6.23858 1 4 3.23858 4 6C4 9.86667 9 18 9 18C9 18 14 9.86667 14 6C14 3.23858 11.7614 1 9 1Z" stroke="white" stroke-width="2" stroke-linecap="round" stroke-linejoin="round"/>
  <path d="M9 8C10.1046 8 11 7.10457 11 6C11 4.89543 10.1046 4 9 4C7.89543 4 7 4.89543 7 6C7 7.10457 7.89543 8 9 8Z" stroke="white" stroke-width="2" stroke-linecap="round" stroke-linejoin="round"/>
</svg>
